<mxfile host="app.diagrams.net" modified="2021-07-21T13:36:13.008Z" agent="5.0 (Windows NT 10.0; Win64; x64) AppleWebKit/537.36 (KHTML, like Gecko) Chrome/91.0.4472.124 Safari/537.36" etag="NTZbA92urSJLBJne4gEW" version="14.9.0" type="github">
  <diagram id="cvKLjMxCYS36ZR1uATGT" name="Page-1">
    <mxGraphModel dx="1422" dy="762" grid="1" gridSize="10" guides="1" tooltips="1" connect="1" arrows="1" fold="1" page="1" pageScale="1" pageWidth="827" pageHeight="1169" math="0" shadow="0">
      <root>
        <mxCell id="0" />
        <mxCell id="1" parent="0" />
        <mxCell id="teScCtvd--mCNO5XychS-3" style="edgeStyle=orthogonalEdgeStyle;rounded=0;orthogonalLoop=1;jettySize=auto;html=1;exitX=1;exitY=0.5;exitDx=0;exitDy=0;entryX=0.5;entryY=0;entryDx=0;entryDy=0;" edge="1" parent="1" source="teScCtvd--mCNO5XychS-1" target="teScCtvd--mCNO5XychS-2">
          <mxGeometry relative="1" as="geometry" />
        </mxCell>
        <mxCell id="teScCtvd--mCNO5XychS-12" style="edgeStyle=orthogonalEdgeStyle;rounded=0;orthogonalLoop=1;jettySize=auto;html=1;exitX=0;exitY=0.5;exitDx=0;exitDy=0;entryX=1;entryY=0.5;entryDx=0;entryDy=0;" edge="1" parent="1" source="teScCtvd--mCNO5XychS-1" target="teScCtvd--mCNO5XychS-11">
          <mxGeometry relative="1" as="geometry" />
        </mxCell>
        <mxCell id="teScCtvd--mCNO5XychS-1" value="store.color&lt;br&gt;===&lt;br&gt;&quot;&quot;" style="rhombus;whiteSpace=wrap;html=1;" vertex="1" parent="1">
          <mxGeometry x="330" y="40" width="120" height="100" as="geometry" />
        </mxCell>
        <mxCell id="teScCtvd--mCNO5XychS-6" style="edgeStyle=orthogonalEdgeStyle;rounded=0;orthogonalLoop=1;jettySize=auto;html=1;exitX=0.5;exitY=1;exitDx=0;exitDy=0;entryX=0.5;entryY=0;entryDx=0;entryDy=0;" edge="1" parent="1" source="teScCtvd--mCNO5XychS-2" target="teScCtvd--mCNO5XychS-5">
          <mxGeometry relative="1" as="geometry" />
        </mxCell>
        <mxCell id="teScCtvd--mCNO5XychS-9" style="edgeStyle=orthogonalEdgeStyle;rounded=0;orthogonalLoop=1;jettySize=auto;html=1;exitX=1;exitY=0.5;exitDx=0;exitDy=0;entryX=0;entryY=0.5;entryDx=0;entryDy=0;" edge="1" parent="1" source="teScCtvd--mCNO5XychS-2" target="teScCtvd--mCNO5XychS-8">
          <mxGeometry relative="1" as="geometry" />
        </mxCell>
        <mxCell id="teScCtvd--mCNO5XychS-2" value="route.params.color&lt;br&gt;===&lt;br&gt;&quot;&quot;" style="rhombus;whiteSpace=wrap;html=1;" vertex="1" parent="1">
          <mxGeometry x="530" y="160" width="200" height="130" as="geometry" />
        </mxCell>
        <mxCell id="teScCtvd--mCNO5XychS-4" value="yes" style="text;html=1;align=center;verticalAlign=middle;resizable=0;points=[];autosize=1;strokeColor=none;" vertex="1" parent="1">
          <mxGeometry x="450" y="70" width="30" height="20" as="geometry" />
        </mxCell>
        <mxCell id="teScCtvd--mCNO5XychS-5" value="Переадресация на GREEN" style="rounded=1;whiteSpace=wrap;html=1;" vertex="1" parent="1">
          <mxGeometry x="570" y="380" width="120" height="60" as="geometry" />
        </mxCell>
        <mxCell id="teScCtvd--mCNO5XychS-7" value="yes" style="text;html=1;align=center;verticalAlign=middle;resizable=0;points=[];autosize=1;strokeColor=none;" vertex="1" parent="1">
          <mxGeometry x="635" y="290" width="30" height="20" as="geometry" />
        </mxCell>
        <mxCell id="teScCtvd--mCNO5XychS-8" value="Переадресация на&amp;nbsp;&lt;br&gt;route.params.COLOR" style="rounded=1;whiteSpace=wrap;html=1;" vertex="1" parent="1">
          <mxGeometry x="840" y="195" width="140" height="60" as="geometry" />
        </mxCell>
        <mxCell id="teScCtvd--mCNO5XychS-10" value="no" style="text;html=1;align=center;verticalAlign=middle;resizable=0;points=[];autosize=1;strokeColor=none;" vertex="1" parent="1">
          <mxGeometry x="745" y="200" width="30" height="20" as="geometry" />
        </mxCell>
        <mxCell id="teScCtvd--mCNO5XychS-11" value="Переадресация на store.color" style="rounded=1;whiteSpace=wrap;html=1;" vertex="1" parent="1">
          <mxGeometry x="110" y="60" width="120" height="60" as="geometry" />
        </mxCell>
        <mxCell id="teScCtvd--mCNO5XychS-13" value="no" style="text;html=1;align=center;verticalAlign=middle;resizable=0;points=[];autosize=1;strokeColor=none;" vertex="1" parent="1">
          <mxGeometry x="300" y="70" width="30" height="20" as="geometry" />
        </mxCell>
      </root>
    </mxGraphModel>
  </diagram>
</mxfile>
